<?xml version="1.0" encoding="UTF-8" standalone="no"?>
        <svg 
    viewBox="3.5888671875 -85.986328125 446.8505859375 57.12890625"
    width="443.26171875"
    height="143.115234375"
   xmlns="http://www.w3.org/2000/svg"
   xmlns:svg="http://www.w3.org/2000/svg">
   <path d="M13.48-112.50L12.30-116.67L37.21-116.67L45.92-127.95Q45.92-127.95 48.60-125.83Q51.27-123.71 54.93-120.67Q58.59-117.63 61.52-114.92L61.52-114.92Q61.08-112.50 57.42-112.50L57.42-112.50L13.48-112.50ZM12.74-73.83L11.57-78.00L37.79-78.00L46.22-88.92Q46.22-88.92 48.85-86.83Q51.49-84.74 55.08-81.77Q58.67-78.81 61.52-76.17L61.52-76.17Q60.86-73.83 57.42-73.83L57.42-73.83L12.74-73.83ZM12.74-54.13L11.57-58.37L37.79-58.37L46.22-69.29Q46.22-69.29 48.85-67.20Q51.49-65.11 55.08-62.15Q58.67-59.18 61.52-56.54L61.52-56.54Q60.86-54.13 57.42-54.13L57.42-54.13L12.74-54.13ZM4.83-93.46L3.59-97.63L46.07-97.63L54.57-108.91Q54.57-108.91 57.31-106.75Q60.06-104.59 63.76-101.59Q67.46-98.58 70.39-95.87L70.39-95.87Q69.73-93.46 66.28-93.46L66.28-93.46L4.83-93.46ZM75.29-127.95L75.29-127.95L105.47-120.12Q104.88-118.65 103.45-117.74Q102.03-116.82 99.32-116.82L99.32-116.82Q97.71-112.13 95.84-107.81Q93.97-103.49 91.92-99.46L91.92-99.46L117.33-99.46L127.37-112.94Q127.37-112.94 129.20-111.44Q131.03-109.94 133.89-107.59Q136.74-105.25 139.86-102.61Q142.97-99.98 145.53-97.63L145.53-97.63Q144.87-95.21 141.28-95.21L141.28-95.21L115.06-95.21L115.06-54.42L123.27-54.42L132.71-68.70Q132.71-68.70 134.44-67.13Q136.16-65.55 138.79-63.06Q141.43-60.57 144.25-57.79Q147.07-55.00 149.27-52.66L149.27-52.66Q148.61-50.24 145.17-50.24L145.17-50.24L115.06-50.24L115.06 7.76Q115.06 8.57 113.01 10.14Q110.96 11.72 107.08 13.07Q103.20 14.43 97.63 14.43L97.63 14.43L93.75 14.43L93.75-50.24L63.87-50.24L62.70-54.42L93.75-54.42L93.75-95.21L89.72-95.21Q79.91-77.71 64.97-66.58L64.97-66.58L63.28-67.68Q66.21-75.44 68.70-85.40Q71.19-95.36 72.91-106.31Q74.63-117.26 75.29-127.95ZM41.67-5.13L41.67-33.33L30.62-33.33L30.62-5.13L41.67-5.13ZM11.43 14.28L11.43-37.50L11.43-45.12L31.05-37.50L40.21-37.50L48.93-46.80L66.58-33.47Q66.06-32.67 64.71-31.79Q63.35-30.91 61.38-30.62L61.38-30.62L61.38 6.30Q61.30 6.96 58.63 8.28Q55.96 9.59 52.22 10.66Q48.49 11.72 45.12 11.72L45.12 11.72L41.67 11.72L41.67-0.88L30.62-0.88L30.62 8.28Q30.62 9.16 28.16 10.58Q25.71 12.01 21.94 13.15Q18.16 14.28 14.14 14.28L14.14 14.28L11.43 14.28ZM220.53-63.57L219.29-67.82L241.33-67.82L250.78-80.27Q250.78-80.27 253.71-77.93Q256.64-75.59 260.63-72.25Q264.62-68.92 267.77-65.99L267.77-65.99Q267.33-63.57 263.67-63.57L263.67-63.57L220.53-63.57ZM227.86-15.75L217.68-37.79Q222.00-38.23 229.91-39.40Q237.82-40.58 247.74-42.19Q257.67-43.80 268.07-45.63L268.07-45.63L268.36-44.09Q262.87-39.84 253.89-33.76Q244.92-27.69 231.88-19.78L231.88-19.78Q230.71-16.48 227.86-15.75L227.86-15.75ZM199.95-52.81L199.95-52.81L220.02-46.80Q219.07-43.65 214.38-43.65L214.38-43.65Q211.01-37.72 206.87-31.68Q202.73-25.63 198.63-21.02L198.63-21.02L196.36-22.05Q197.24-27.91 198.27-36.40Q199.29-44.90 199.95-52.81ZM158.86-52.08L160.62-52.51Q169.19-46.51 172.60-40.43Q176.00-34.35 175.78-29.26Q175.56-24.17 173.00-21.17Q170.43-18.16 166.77-18.16Q163.11-18.16 159.74-22.34L159.74-22.34Q160.99-29.66 160.55-37.65Q160.11-45.63 158.86-52.08L158.86-52.08ZM165.89 13.18L154.03-9.01Q157.91-9.45 163.73-10.25Q169.56-11.06 176.88-12.30L176.88-12.30L176.88-57.93L157.32-57.93L156.15-62.11L176.88-62.11L176.88-80.27L167.72-80.27L167.43-81.30Q160.69-75.29 152.86-70.68L152.86-70.68L151.46-71.70Q155.86-77.34 159.78-84.59Q163.70-91.85 166.85-99.68Q170.00-107.52 172.23-114.99Q174.46-122.46 175.49-128.39L175.49-128.39L200.68-120.12Q200.39-118.80 199.22-117.92Q198.05-117.04 195.48-116.82L195.48-116.82Q204.93-115.21 210.13-112.32Q215.33-109.42 217.16-106.09Q218.99-102.76 218.30-99.68Q217.60-96.61 215.15-94.59Q212.70-92.58 209.36-92.25Q206.03-91.92 202.66-94.19L202.66-94.19Q205.15-91.92 208.67-88.70Q212.18-85.47 214.82-82.62L214.82-82.62Q214.38-80.27 210.72-80.27L210.72-80.27L194.97-80.27L194.97-62.11L195.78-62.11L204.79-75.88L209.40-71.41Q215.55-82.18 220.68-97.08Q225.81-111.99 228.30-127.66L228.30-127.66L255.18-119.68Q254.15-116.31 249.17-116.53L249.17-116.53Q247.27-111.91 245.03-107.67Q242.80-103.42 240.45-99.46L240.45-99.46L270.12-99.46L280.81-110.38L298.32-94.78Q296.48-92.50 291.43-91.63L291.43-91.63Q290.92-67.09 290.00-50.02Q289.09-32.96 287.59-21.86Q286.08-10.77 283.74-4.25Q281.40 2.27 277.95 5.71L277.95 5.71Q273.56 10.11 268.10 12.01Q262.65 13.92 255.32 13.92L255.32 13.92Q255.54 3.59 252.61-0.15L252.61-0.15Q248.88-4.98 239.28-7.18L239.28-7.18L239.28-9.01Q243.53-8.64 248.88-8.39Q254.22-8.13 256.79-8.13L256.79-8.13Q260.23-8.13 262.35-10.18L262.35-10.18Q266.75-13.99 268.76-34.50Q270.78-55.00 271.80-95.21L271.80-95.21L237.74-95.21Q226.76-79.17 211.82-69.14L211.82-69.14Q214.01-67.02 216.36-64.67Q218.70-62.33 220.53-60.28L220.53-60.28Q219.87-57.93 216.43-57.93L216.43-57.93L194.97-57.93L194.97-15.16L221.56-19.63L221.85-18.16Q213.94-13.11 201.42-6.34Q188.89 0.44 170.07 9.30L170.07 9.30Q168.75 12.52 165.89 13.18L165.89 13.18ZM191.97-112.06L191.97-112.06Q188.16-105.10 182.81-98.00Q177.47-90.89 170.87-84.45L170.87-84.45L190.65-84.45L199.37-97.05L201.78-94.92Q200.54-98.29 198.01-102.91Q195.48-107.52 191.97-112.06ZM323.88-76.98L323.88-76.98L325.63-77.12Q326.66-74.85 327.47-72.80Q328.27-70.75 328.78-68.70L328.78-68.70L419.24-68.70L429.42-78.74L446.85-62.26Q445.46-60.64 440.99-60.42L440.99-60.42Q437.84-58.81 433.56-56.87Q429.27-54.93 424.88-53.10Q420.48-51.27 416.82-50.10L416.82-50.10L415.65-50.98Q416.53-53.69 417.66-57.42Q418.80-61.16 419.68-64.53L419.68-64.53L400.05-64.53Q402.76-62.48 407.08-59.11Q411.40-55.74 414.92-52.81L414.92-52.81Q414.26-50.39 410.67-50.39L410.67-50.39L388.77-50.39Q391.04-44.24 394.26-39.33Q397.49-34.42 401.37-30.47L401.37-30.47Q406.79-35.08 411.91-40.54Q417.04-46.00 419.97-49.95L419.97-49.95L440.11-34.94Q439.53-33.91 438.24-33.47Q436.96-33.03 434.40-33.62L434.40-33.62Q428.69-31.57 421.11-29.74Q413.53-27.91 405.91-26.51L405.91-26.51Q413.67-20.36 423.41-16.70Q433.15-13.04 443.85-10.62L443.85-10.62L443.70-9.01Q437.62-7.40 433.41-2.60Q429.20 2.20 427.22 9.59L427.22 9.59Q416.02 3.81 407.89-3.70Q399.76-11.21 394.45-22.41Q389.14-33.62 386.28-50.39L386.28-50.39L383.28-50.39Q380.64-48.85 377.64-47.46Q374.63-46.07 371.41-44.68L371.41-44.68Q379.39-38.89 383.94-31.46Q388.48-24.02 390.09-16.44Q391.70-8.86 390.82-2.34Q389.94 4.17 387.01 8.13L387.01 8.13Q384.30 11.72 378.44 13.00Q372.58 14.28 364.53 14.28L364.53 14.28Q364.31 6.45 361.23 2.71L361.23 2.71Q359.99 1.32 357.13-0.04Q354.27-1.39 350.54-2.56L350.54-2.56L350.54-3.44Q328.78 3.66 306.30 6.88L306.30 6.88L305.42 4.83Q317.36 1.25 329.48-4.17Q341.60-9.59 352.40-16.08Q363.21-22.56 371.12-29.22L371.12-29.22L370.83-30.62Q362.18-26.51 351.71-23.00Q341.24-19.48 330.03-16.88Q318.82-14.28 308.13-12.89L308.13-12.89L307.32-15.16Q317.07-17.87 327.10-22.01Q337.13-26.15 346.22-31.20Q355.30-36.25 362.11-41.53L362.11-41.53Q351.49-38.31 339.40-36.22Q327.32-34.13 314.72-33.03L314.72-33.03L313.92-34.79Q324.98-37.65 334.79-41.78Q344.60-45.92 352.08-50.39L352.08-50.39L333.62-50.39L332.37-54.57L387.45-54.57L395.58-64.53L329.74-64.53Q330.91-56.03 328.16-50.35Q325.42-44.68 320.73-42.92L320.73-42.92Q316.19-41.09 311.57-42.99Q306.96-44.90 305.86-50.10L305.86-50.10Q304.76-55.15 307.43-58.45Q310.11-61.74 314.43-63.28L314.43-63.28Q318.02-64.75 321.17-68.48Q324.32-72.22 323.88-76.98ZM372.00-11.72L372.00-11.72Q367.38-9.59 362.33-7.65Q357.28-5.71 351.93-3.88L351.93-3.88Q355.59-3.59 360.31-3.37Q365.04-3.15 367.02-3.15L367.02-3.15Q369.65-3.15 370.39-4.32L370.39-4.32Q371.56-6.74 372.00-11.72ZM333.33-70.02L333.33-98.07L333.33-106.35L355.66-98.07L394.48-98.07L403.05-107.08L309.16-107.08L307.98-111.33L363.43-111.33L363.43-128.69L391.19-126.78Q391.11-125.17 390.01-124.07Q388.92-122.97 385.77-122.39L385.77-122.39L385.77-111.33L413.53-111.33L424.37-125.83Q424.37-125.83 426.38-124.26Q428.39-122.68 431.51-120.15Q434.62-117.63 437.99-114.81Q441.36-111.99 444.14-109.50L444.14-109.50Q443.48-107.08 439.82-107.08L439.82-107.08L404.08-107.08L422.09-93.90Q421.51-93.24 420.45-92.50Q419.38-91.77 417.48-91.33L417.48-91.33L417.48-76.68Q417.41-76.03 414.33-74.96Q411.25-73.90 407.15-73.02Q403.05-72.14 399.76-72.14L399.76-72.14L395.87-72.14L395.87-77.27L354.57-77.27L354.57-76.17Q354.57-75.37 351.75-73.90Q348.93-72.44 344.68-71.23Q340.43-70.02 336.18-70.02L336.18-70.02L333.33-70.02ZM354.57-93.90L354.57-81.45L395.87-81.45L395.87-93.90L354.57-93.90Z"/>
    </svg>
        