<svg width="177" height="177" version="1.1" xmlns="http://www.w3.org/2000/svg" xmlns:xlink="http://www.w3.org/1999/xlink"><path d="M67.79 39.08L67.79 39.08Q63.90 39.08 60.89 36.78L60.89 36.78L49.21 27.22Q47.08 25.27 46.55 24.39L46.55 24.39Q46.02 23.33 46.55 22.09L46.55 22.09Q47.08 21.02 48.32 21.20L48.32 21.20Q63.01 22.26 67.79 28.64L67.79 28.64Q69.21 30.41 69.38 32.35L69.38 32.35L69.21 36.78Q68.85 38.72 67.79 39.08ZM110.98 98.55L110.98 98.55L110.63 99.97L111.16 138.02Q110.98 156.96 108.15 166.87L108.15 166.87L106.38 168.82Q104.78 168.82 103.72 166.52L103.72 166.52Q100.89 158.38 102.13 110.94L102.13 110.94Q102.31 103.15 102.31 100.14L102.31 100.14Q100.54 100.14 87.79 102.80L87.79 102.80Q72.75 105.98 68.32 100.32L68.32 100.32Q68.14 99.97 67.79 99.61L67.79 99.61Q67.79 98.55 69.56 98.02L69.56 98.02L101.60 94.13L102.31 93.59Q102.31 78.37 97.88 67.04L97.88 67.04Q91.16 66.51 88.85 64.39L88.85 64.39L80.89 74.12Q76.29 78.90 73.28 78.90L73.28 78.90L73.28 76.78Q95.58 40.32 96.11 26.51L96.11 26.51L93.81 19.43Q93.63 17.48 95.93 16.95L95.93 16.95Q99.30 16.07 106.20 20.85L106.20 20.85Q109.03 22.79 110.09 24.39L110.09 24.39Q111.33 26.33 107.44 31.82L107.44 31.82Q106.73 32.88 106.38 33.41L106.38 33.41Q100.71 46.16 90.27 61.38L90.27 61.38Q98.94 60.67 116.47 54.65L116.47 54.65Q122.48 52.71 126.20 51.65L126.20 51.65Q128.32 51.11 130.45 51.11L130.45 51.11Q134.87 51.11 139.30 53.95L139.30 53.95L139.48 54.83L139.65 55.01Q139.48 56.60 136.11 57.49L136.11 57.49Q134.70 58.02 114.70 63.68L114.70 63.68Q110.98 64.74 108.15 65.81L108.15 65.81Q111.86 67.75 112.57 70.76L112.57 70.76Q111.16 79.26 110.98 92.53L110.98 92.53Q115.23 92.53 129.03 89.35L129.03 89.35Q136.11 87.75 140.89 87.75L140.89 87.75Q149.21 87.75 154.17 91.65L154.17 91.65Q155.41 92.71 155.94 93.77L155.94 93.77Q157.00 95.54 155.05 96.78L155.05 96.78Q154.52 97.31 153.81 97.31L153.81 97.31Q149.74 97.84 139.83 97.49L139.83 97.49Q125.32 97.84 110.98 98.55ZM73.28 52.71L73.28 52.71Q73.28 54.12 71.15 54.83L71.15 54.83L56.11 58.02Q33.63 63.33 20.00 68.81L20.00 68.81Q10.27 68.81 6.55 63.86L6.55 63.86Q6.55 61.03 14.69 60.14L14.69 60.14Q16.64 59.79 17.17 59.79L17.17 59.79Q23.72 58.55 33.63 56.25L33.63 56.25L57.35 49.70Q60.71 48.99 63.72 48.64L63.72 48.64Q66.91 48.28 69.74 49.34L69.74 49.34Q72.39 50.58 73.28 52.71ZM66.55 74.66L66.55 74.66Q66.55 76.07 65.14 76.96L65.14 76.96Q60.89 79.26 45.84 81.38L45.84 81.38Q43.19 81.91 41.95 81.91L41.95 81.91Q37.70 81.91 34.34 80.67L34.34 80.67Q32.74 79.08 32.74 78.90L32.74 78.90Q36.46 76.96 55.40 72.53L55.40 72.53Q58.94 71.65 59.65 71.65L59.65 71.65Q63.90 71.65 66.55 74.66ZM64.60 92.53L64.60 92.53Q64.43 95.54 52.04 97.67L52.04 97.67Q37.70 100.14 34.16 97.13L34.16 97.13Q33.45 96.43 33.45 95.72L33.45 95.72Q38.41 93.24 53.63 90.05L53.63 90.05Q56.99 89.35 58.23 89.35L58.23 89.35Q62.30 89.35 64.60 92.53ZM60.89 122.98L57.88 133.42L61.60 136.07Q62.30 136.78 62.30 137.84L62.30 137.84L61.24 138.73Q50.09 140.32 36.28 144.04L36.28 144.04Q36.28 149.00 35.40 149.53L35.40 149.53Q30.27 148.46 28.85 140.68L28.85 140.68Q26.02 127.58 20.00 115.72L20.00 115.72Q20.00 114.13 23.01 114.13L23.01 114.13Q28.32 116.43 38.59 112.53L38.59 112.53Q41.95 111.29 43.19 110.94L43.19 110.94L51.86 107.05Q53.28 106.52 54.87 106.52L54.87 106.52L64.43 111.65Q67.61 113.42 63.19 119.44L63.19 119.44Q61.24 122.27 60.89 122.98L60.89 122.98ZM51.51 116.43L51.51 116.43Q50.80 115.37 47.26 115.01L47.26 115.01L33.45 118.91Q32.39 119.26 31.51 119.61L31.51 119.61Q32.57 127.22 35.75 138.38L35.75 138.38L48.85 134.66L51.33 119.44Q51.51 117.84 51.51 116.43Z" stroke="#000" fill="black" /></svg>