<svg width="177" height="177" version="1.1" xmlns="http://www.w3.org/2000/svg" xmlns:xlink="http://www.w3.org/1999/xlink"><path d="M80.89 31.68L80.89 31.68Q80.18 32.39 76.46 32.39L76.46 32.39L60.53 23.01Q58.59 21.77 58.59 19.12L58.59 19.12L59.65 18.41Q70.80 18.94 73.63 19.82L73.63 19.82Q76.11 20.53 78.06 21.77L78.06 21.77Q82.30 27.61 80.89 31.68ZM115.23 35.40L115.58 36.28Q115.58 37.70 113.63 38.41L113.63 38.41Q87.08 38.41 64.43 41.95L64.43 41.95Q51.51 44.07 48.67 44.78L48.67 44.78L41.95 46.37Q38.41 46.55 35.58 44.07L35.58 44.07Q34.52 43.01 33.63 41.77L33.63 41.77L33.98 40.89L70.98 35.40Q71.15 35.22 71.51 35.22L71.51 35.22L98.94 29.56L99.12 29.56Q104.43 28.67 110.80 32.21L110.80 32.21Q113.28 33.63 115.23 35.40L115.23 35.40ZM101.77 50.09L101.77 50.09Q101.77 52.57 98.23 55.22L98.23 55.22L95.58 57.52Q95.40 57.70 95.23 58.06L95.23 58.06L93.10 61.24L95.40 63.90L95.58 65.14L95.05 65.84Q67.61 69.03 63.01 69.91L63.01 69.91Q61.42 70.27 60.00 70.45L60.00 70.45Q59.65 73.28 58.94 73.99L58.94 73.99Q54.69 72.39 51.86 64.78L51.86 64.78Q50.27 60.53 49.56 59.12L49.56 59.12L46.02 53.28Q45.31 51.86 45.31 50.62L45.31 50.62Q46.90 50.27 54.16 50.62L54.16 50.62Q55.40 50.62 56.29 50.62L56.29 50.62Q68.50 50.09 87.08 42.83L87.08 42.83Q95.05 42.83 101.77 50.09ZM87.97 51.86L87.97 50.09Q84.25 47.61 58.94 54.34L58.94 54.34Q58.06 54.52 57.17 54.87L57.17 54.87L59.12 65.31L59.12 65.49L85.49 60.00L87.97 51.86ZM139.65 82.84L139.65 82.84Q139.65 83.90 137.00 84.78L137.00 84.78Q126.73 85.49 113.10 91.51L113.10 91.51L110.80 91.33L110.80 89.74Q115.58 83.37 118.24 77.35L118.24 77.35Q118.06 76.11 115.93 75.40L115.93 75.40Q90.45 76.82 60.71 82.13L60.71 82.13L40.00 86.73Q32.39 87.97 27.97 86.73L27.97 86.73Q19.12 108.85 18.76 109.03L18.76 109.03Q17.52 109.92 15.22 109.92L15.22 109.92Q10.27 104.96 11.33 98.41L11.33 98.41Q11.50 97.53 11.86 96.82L11.86 96.82Q20.71 85.67 21.59 77.70L21.59 77.70Q21.59 76.29 21.59 75.05L21.59 75.05L22.48 74.52L24.60 75.40Q26.90 77.35 29.03 82.30L29.03 82.30L118.77 69.03Q125.14 67.97 134.34 77.53L134.34 77.53Q138.77 82.13 139.65 82.84ZM153.10 140.89L153.10 140.89L151.51 142.48L132.57 149.21Q127.44 150.63 123.19 150.63L123.19 150.63Q117.00 150.63 110.09 146.38L110.09 146.38L83.01 129.39Q81.60 128.50 80.53 127.62L80.53 127.62Q80.53 128.50 81.95 135.40L81.95 135.40Q81.95 135.58 81.95 135.94L81.95 135.94Q84.25 149.74 81.60 161.78L81.60 161.78Q79.30 171.87 73.28 173.28L73.28 173.28Q70.98 172.57 66.38 168.33L66.38 168.33Q65.14 167.44 64.43 166.73L64.43 166.73L54.16 160.18L52.39 158.59L52.39 157.53L66.55 157.00Q68.50 156.64 70.27 156.11L70.27 156.11Q74.16 150.98 73.10 134.87L73.10 134.87Q72.92 132.22 72.75 129.92L72.75 129.92Q52.21 146.91 38.41 152.22L38.41 152.22Q29.74 155.58 21.24 156.29L21.24 156.29L19.29 155.05Q21.24 153.81 33.63 147.62L33.63 147.62Q55.58 135.76 69.21 119.83L69.21 119.83L66.55 116.11Q40.36 132.04 33.10 132.93L33.10 132.93Q30.62 132.93 25.13 132.57L25.13 132.57L43.36 123.01Q53.63 116.82 58.94 109.21L58.94 109.21Q57.52 107.62 56.46 107.44L56.46 107.44L55.58 107.79Q53.98 108.50 43.01 114.16L43.01 114.16Q35.05 118.41 28.85 118.59L28.85 118.59Q25.84 118.59 24.25 117.88L24.25 117.88Q24.60 117.00 32.74 113.63L32.74 113.63Q47.79 107.26 52.92 98.94L52.92 98.94L44.96 97.70L42.13 96.29Q41.06 95.40 40.53 94.34L40.53 94.34L42.48 93.28Q54.69 92.39 67.97 89.03L67.97 89.03L78.94 85.84Q79.47 85.84 80.00 85.67L80.00 85.67Q83.54 85.31 86.91 86.55L86.91 86.55Q89.38 87.26 90.98 88.50L90.98 88.50Q90.98 90.80 87.08 92.04L87.08 92.04Q84.78 92.57 62.83 97.17L62.83 97.17Q61.60 97.35 60.53 97.70L60.53 97.70L62.83 102.31L62.66 104.08L60.53 105.14Q70.62 108.68 75.40 117.53L75.40 117.53Q89.74 105.31 94.69 96.64L94.69 96.64Q94.87 96.46 95.05 96.11L95.05 96.11Q94.34 89.92 101.60 95.40L101.60 95.40Q106.91 99.47 108.68 102.31L108.68 102.31Q108.68 104.78 103.54 106.73L103.54 106.73Q101.60 107.44 101.07 107.79L101.07 107.79L77.53 120.01L100.18 130.63Q108.15 133.81 114.34 134.87L114.34 134.87L148.68 139.65Q152.57 140.36 153.10 140.89Z" stroke="#000" fill="black" /></svg>