<svg width="177" height="177" version="1.1" xmlns="http://www.w3.org/2000/svg" xmlns:xlink="http://www.w3.org/1999/xlink"><path d="M153.81 61.95L153.81 61.95Q150.10 65.49 149.21 72.75L149.21 72.75L144.96 113.10Q143.19 125.14 140.72 134.52L140.72 134.52Q138.77 141.78 132.57 150.45L132.57 150.45Q129.74 154.17 127.62 155.41L127.62 155.41Q126.55 155.94 123.55 155.94L123.55 155.94Q113.10 144.25 110.63 141.95L110.63 141.95Q108.68 140.18 106.91 138.77L106.91 138.77Q104.08 136.64 103.54 135.05L103.54 135.05Q104.25 134.52 105.14 134.52L105.14 134.52L108.85 135.23Q120.36 137.35 126.20 137.35L126.20 137.35Q135.41 129.92 137.00 81.60L137.00 81.60Q137.00 78.59 137.00 75.76L137.00 75.76Q137.00 66.02 136.64 64.25L136.64 64.25Q135.58 60.53 133.10 58.41L133.10 58.41Q130.98 58.41 114.34 62.13L114.34 62.13L104.25 63.72L98.59 63.72L97.17 63.37L89.38 73.81Q85.49 78.23 81.07 80.00L81.07 80.00L80.00 80.00L80.00 78.23Q108.50 33.81 100.36 23.72L100.36 23.72Q100.00 17.17 109.74 22.83L109.74 22.83Q114.87 25.84 116.64 28.14L116.64 28.14Q117.00 29.20 117.00 29.91L117.00 29.91Q117.00 31.33 113.63 36.11L113.63 36.11L112.39 38.05Q108.50 46.02 100.18 59.12L100.18 59.12Q113.28 56.82 122.66 54.16L122.66 54.16L132.40 51.15Q132.93 51.15 133.28 51.15L133.28 51.15Q138.24 50.62 146.03 53.45L146.03 53.45Q150.10 55.05 152.04 56.82L152.04 56.82Q153.81 58.23 153.81 61.95ZM122.66 82.66L122.66 82.66Q122.66 86.73 108.32 87.44L108.32 87.44Q101.77 87.79 96.46 87.08L96.46 87.08L91.69 86.02Q91.51 85.84 91.33 85.84L91.33 85.84L90.80 84.78Q93.63 82.84 111.16 80.00L111.16 80.00Q114.70 79.47 115.76 79.47L115.76 79.47Q120.36 79.47 122.66 82.66ZM124.61 104.61L124.61 104.61Q124.61 106.55 122.66 107.08L122.66 107.08Q105.85 112.39 95.93 112.39L95.93 112.39Q90.62 112.39 86.38 110.62L86.38 110.62L84.78 109.03L86.38 107.62Q97.17 106.55 106.55 103.90L106.55 103.90L115.40 101.42L116.11 101.42Q118.77 101.24 121.60 102.66L121.60 102.66Q123.55 103.54 124.61 104.61ZM81.24 46.55L80.18 48.50L76.99 48.14L59.12 35.75Q58.59 35.58 58.23 35.22L58.23 35.22Q50.98 47.79 35.40 66.91L35.40 66.91Q16.46 90.27 9.03 90.27L9.03 90.27L9.03 88.32Q44.96 46.73 51.68 24.96L51.68 24.96Q52.39 22.66 50.98 16.11L50.98 16.11Q50.62 14.16 50.45 12.92L50.45 12.92L51.33 12.39Q56.99 12.57 62.66 16.99L62.66 16.99Q66.38 19.82 66.38 22.83L66.38 22.83Q66.38 24.60 62.83 28.32L62.83 28.32L60.53 30.97L60.53 31.15L61.42 31.86L72.57 34.87Q81.07 37.88 81.60 43.72L81.60 43.72Q81.77 45.31 81.24 46.55L81.24 46.55ZM80.71 97.53L80.71 97.53L65.84 108.15Q64.96 108.50 64.07 109.03L64.07 109.03Q64.07 107.26 67.44 101.60L67.44 101.60Q70.62 95.93 70.62 91.15L70.62 91.15Q73.28 89.56 77.88 92.92L77.88 92.92Q80.89 95.23 80.71 97.53ZM76.99 112.57L76.99 112.57Q76.64 114.52 74.34 116.29L74.34 116.29Q68.50 120.18 51.51 127.44L51.51 127.44Q38.76 132.93 32.21 138.06L32.21 138.06L29.56 137.71Q28.67 136.82 23.72 133.99L23.72 133.99Q19.12 131.33 19.12 127.26L19.12 127.26Q20.53 125.85 25.49 126.02L25.49 126.02Q27.26 126.20 28.14 125.85L28.14 125.85L51.33 119.47L51.68 92.75L40.18 93.81L35.75 93.28Q33.81 92.57 32.57 91.33L32.57 91.33Q32.57 90.45 34.52 89.74L34.52 89.74Q35.05 89.56 35.22 89.21L35.22 89.21Q45.49 88.32 51.68 85.84L51.68 85.84Q51.33 78.41 49.91 71.86L49.91 71.86L41.42 71.33Q38.41 70.80 36.99 68.85L36.99 68.85Q36.99 67.61 38.76 67.26L38.76 67.26L60.71 61.60Q62.48 61.06 63.90 60.36L63.90 60.36Q71.33 60.36 74.34 62.66L74.34 62.66L73.99 64.78Q64.43 68.14 56.82 70.27L56.82 70.27Q60.36 73.10 61.24 74.16L61.24 74.16L60.53 82.66L60.53 82.84Q65.31 80.53 71.33 80.89L71.33 80.89Q75.76 81.24 76.11 84.25L76.11 84.25L75.76 85.14Q70.45 87.79 60.36 90.09L60.36 90.09L59.83 90.80L58.76 116.82Q61.06 116.64 70.09 113.81L70.09 113.81Q73.99 112.57 76.99 112.57ZM39.65 117.00L39.65 117.00L36.99 116.29L25.31 103.37Q24.78 102.66 24.78 102.48L24.78 102.48L25.49 100.36Q30.44 100.36 37.17 104.43L37.17 104.43Q42.13 107.26 42.13 110.09L42.13 110.09Q42.13 115.05 41.06 116.11L41.06 116.11Q40.53 116.64 39.65 117.00Z" stroke="#000" fill="black" /></svg>