<?xml version="1.0" standalone="no"?>
<!DOCTYPE svg PUBLIC "-//W3C//DTD SVG 20010904//EN"
 "http://www.w3.org/TR/2001/REC-SVG-20010904/DTD/svg10.dtd">
<svg version="1.0" xmlns="http://www.w3.org/2000/svg"
 width="225.000000pt" height="225.000000pt" viewBox="0 0 225.000000 225.000000"
 preserveAspectRatio="xMidYMid meet">

<g transform="translate(0.000000,225.000000) scale(0.100000,-0.100000)"
fill="#000000" stroke="none">
<path d="M458 1683 c7 -3 16 -2 19 1 4 3 -2 6 -13 5 -11 0 -14 -3 -6 -6z"/>
<path d="M603 1674 c-28 -14 -35 -14 -50 -3 -16 13 -17 12 -5 -2 10 -14 10
-23 -5 -53 l-17 -36 -68 0 c-47 0 -68 4 -69 13 0 6 -4 2 -9 -10 -5 -13 -15
-23 -22 -23 -7 0 -31 -11 -52 -24 l-39 -24 38 2 c34 1 41 -3 53 -29 23 -53 29
-60 48 -60 17 0 19 7 17 53 -2 35 2 52 10 52 23 0 38 -17 56 -66 13 -34 25
-49 37 -49 16 0 19 9 22 63 2 44 7 62 17 62 7 0 18 15 24 33 19 55 64 91 116
92 57 0 43 14 -21 21 -34 3 -59 0 -81 -12z"/>
<path d="M419 1663 c-13 -16 -12 -17 4 -4 9 7 17 15 17 17 0 8 -8 3 -21 -13z"/>
<path d="M312 1338 c-17 -17 -15 -59 4 -86 40 -58 108 14 74 79 -12 22 -59 26
-78 7z"/>
<path d="M506 1318 c-3 -7 -7 -39 -10 -71 -4 -48 -11 -66 -40 -102 -20 -24
-36 -48 -36 -54 0 -25 46 -8 86 33 42 42 44 46 44 105 0 62 -12 101 -31 101
-5 0 -11 -6 -13 -12z"/>
<path d="M589 1323 c-1 -5 -2 -50 -3 -101 -1 -104 -2 -105 -99 -168 -45 -29
-44 -50 2 -46 43 3 99 33 135 71 28 29 29 33 23 100 -6 74 -51 185 -58 144z"/>
<path d="M34 1255 c-47 -113 32 -260 115 -214 38 21 33 42 -13 51 -53 11 -68
25 -64 62 3 26 9 32 51 45 26 8 47 18 47 23 0 13 -82 68 -102 68 -12 0 -24
-12 -34 -35z"/>
<path d="M739 1278 c-1 -7 0 -47 1 -89 1 -52 -4 -93 -16 -127 -10 -28 -15 -54
-11 -59 13 -12 59 19 85 57 19 29 22 43 17 80 -11 80 -72 189 -76 138z"/>
<path d="M1224 1268 c3 -13 11 -84 17 -158 15 -185 32 -222 63 -137 22 61 36
150 36 233 l0 72 -31 6 c-17 3 -45 6 -61 6 -27 0 -30 -3 -24 -22z"/>
<path d="M980 1275 c0 -3 14 -33 30 -65 17 -33 42 -102 55 -152 36 -136 59
-144 75 -27 9 65 6 119 -12 202 l-10 47 -69 0 c-38 0 -69 -2 -69 -5z"/>
<path d="M1443 1100 c-2 -144 0 -170 12 -170 33 0 84 136 101 266 l6 51 -38 7
c-22 4 -48 10 -59 12 -20 5 -20 0 -22 -166z"/>
<path d="M1656 1189 c-2 -8 -7 -43 -11 -78 -4 -44 -17 -83 -41 -128 -19 -36
-32 -68 -29 -73 22 -35 127 74 151 156 18 64 16 74 -34 112 -24 18 -33 21 -36
11z"/>
<path d="M897 1063 c-13 -13 -6 -30 38 -90 40 -56 44 -67 47 -127 2 -37 7 -67
13 -69 21 -5 55 66 55 117 0 65 -25 107 -87 146 -50 32 -56 34 -66 23z"/>
<path d="M2117 880 c-14 -11 -32 -39 -41 -63 -26 -73 -28 -84 -11 -84 8 0 38
-10 65 -23 42 -20 48 -26 38 -39 -11 -14 -10 -15 5 -1 27 25 59 129 52 167 -6
33 -37 63 -66 63 -9 0 -28 -9 -42 -20z"/>
<path d="M1157 858 c-13 -18 -32 -53 -42 -78 -37 -90 -78 -149 -106 -155 -15
-4 -33 -12 -39 -20 -6 -7 -18 -71 -27 -142 -26 -221 -30 -233 -79 -280 -47
-46 -41 -56 14 -23 44 27 60 68 78 203 9 62 21 137 28 167 l12 55 94 17 c52 9
127 17 167 17 l71 1 22 -45 c12 -24 44 -63 71 -86 44 -36 49 -45 49 -81 0 -29
-8 -50 -28 -77 -16 -20 -31 -44 -35 -53 -5 -13 -21 -18 -69 -21 l-63 -3 68 -2
c59 -2 67 -4 67 -21 0 -33 11 -51 41 -66 45 -24 57 -17 22 11 -28 22 -33 32
-33 69 0 35 6 52 30 78 25 29 30 43 30 89 0 30 -5 59 -11 65 -7 7 2 12 35 17
24 4 59 17 78 29 36 25 70 81 61 103 -5 12 -10 12 -32 -3 -65 -44 -116 -63
-166 -63 -60 0 -73 11 -82 64 -3 21 -11 36 -19 36 -18 0 -17 8 2 100 26 122
-14 177 -52 72 -9 -26 -29 -75 -44 -108 -25 -56 -31 -62 -65 -68 -20 -4 -39
-5 -42 -2 -3 2 2 26 11 53 32 97 39 183 15 183 -4 0 -19 -15 -32 -32z"/>
<path d="M1595 827 c-33 -30 -81 -66 -107 -81 -59 -34 -75 -53 -60 -68 9 -9
28 -9 78 -1 78 14 114 42 150 118 47 99 27 110 -61 32z"/>
<path d="M781 840 c-18 -4 -41 -15 -50 -25 -15 -15 -15 -17 2 -29 9 -8 40 -17
68 -20 29 -4 68 -18 88 -32 88 -60 96 -3 13 89 -27 28 -55 33 -121 17z"/>
<path d="M1819 807 c-18 -15 -30 -41 -39 -80 l-13 -58 38 -37 c22 -20 31 -27
21 -14 -11 12 -15 22 -9 22 6 0 30 18 55 40 25 21 49 36 53 32 4 -4 -9 17 -29
47 -20 29 -36 57 -36 62 0 15 -13 10 -41 -14z"/>
<path d="M1942 661 c-2 -24 -7 -52 -13 -62 -15 -30 -11 -37 28 -41 48 -6 118
9 134 28 10 12 10 14 0 12 -7 -2 -22 21 -35 52 -22 55 -22 55 -67 55 l-44 1
-3 -45z"/>
<path d="M437 645 c-9 -19 -13 -34 -9 -33 4 1 19 -6 34 -16 30 -20 58 -16 58
8 0 15 -47 76 -59 76 -4 0 -15 -16 -24 -35z"/>
<path d="M628 618 l32 -32 -38 -41 -37 -40 42 40 43 39 -32 33 c-18 18 -34 33
-37 33 -3 0 9 -14 27 -32z"/>
<path d="M2129 623 l-24 -28 28 24 c15 14 27 26 27 28 0 8 -8 1 -31 -24z"/>
<path d="M710 599 c0 -33 3 -40 16 -35 9 3 47 6 86 6 51 0 69 3 66 13 -7 20
-90 57 -130 57 -38 0 -38 0 -38 -41z"/>
<path d="M389 573 c-13 -16 -33 -39 -44 -53 l-20 -25 22 18 c21 19 22 18 57
-8 20 -15 43 -25 51 -21 25 9 18 52 -14 79 -17 14 -27 28 -24 31 4 3 4 6 2 6
-3 0 -16 -12 -30 -27z"/>
<path d="M1857 589 c7 -7 15 -10 18 -7 3 3 -2 9 -12 12 -14 6 -15 5 -6 -5z"/>
<path d="M1291 494 c0 -11 3 -14 6 -6 3 7 2 16 -1 19 -3 4 -6 -2 -5 -13z"/>
<path d="M710 456 l0 -34 91 -1 c67 0 90 3 87 12 -7 22 -90 57 -135 57 -42 0
-43 -1 -43 -34z"/>
<path d="M524 438 l-29 -33 33 29 c30 28 37 36 29 36 -2 0 -16 -15 -33 -32z"/>
<path d="M492 380 c0 -14 2 -19 5 -12 2 6 2 18 0 25 -3 6 -5 1 -5 -13z"/>
<path d="M271 354 c0 -11 3 -14 6 -6 3 7 2 16 -1 19 -3 4 -6 -2 -5 -13z"/>
<path d="M392 334 c-12 -8 -22 -22 -22 -30 0 -11 -4 -12 -19 -4 -11 5 -27 7
-36 4 -10 -4 -21 -1 -26 7 -5 8 -9 9 -9 3 0 -17 47 -64 65 -64 8 0 15 6 15 13
1 8 4 7 13 -3 8 -10 21 -14 37 -10 43 9 61 25 70 63 l8 37 -37 0 c-20 0 -47
-7 -59 -16z"/>
<path d="M1232 310 c0 -14 2 -19 5 -12 2 6 2 18 0 25 -3 6 -5 1 -5 -13z"/>
<path d="M653 235 c-3 -9 -3 -18 -1 -21 3 -3 8 4 11 16 6 23 -1 27 -10 5z"/>
<path d="M1518 153 c7 -3 16 -2 19 1 4 3 -2 6 -13 5 -11 0 -14 -3 -6 -6z"/>
</g>
</svg>
